<?xml version="1.0" standalone="no"?>
<!DOCTYPE svg PUBLIC "-//W3C//DTD SVG 20010904//EN"
 "http://www.w3.org/TR/2001/REC-SVG-20010904/DTD/svg10.dtd">
<svg version="1.0" xmlns="http://www.w3.org/2000/svg"
 width="512.000000pt" height="512.000000pt" viewBox="0 0 512.000000 512.000000"
 preserveAspectRatio="xMidYMid meet">

<g transform="translate(0.000000,512.000000) scale(0.100000,-0.100000)"
fill="#FFFFFF" stroke="none">
<path d="M2480 5107 c-49 -16 -133 -102 -148 -153 -7 -23 -12 -67 -12 -98 l0
-56 -56 0 c-87 0 -133 -18 -189 -75 -102 -101 -102 -229 0 -330 56 -57 102
-75 189 -75 l56 0 0 -119 0 -119 -153 -4 c-151 -3 -155 -4 -203 -33 -30 -19
-60 -49 -79 -79 -26 -44 -30 -58 -30 -125 0 -74 2 -81 88 -271 48 -107 87
-198 87 -202 0 -5 -14 -8 -30 -8 -41 0 -80 -39 -80 -80 0 -51 38 -80 105 -80
l55 0 0 -90 c0 -75 -3 -90 -16 -90 -27 0 -119 -101 -132 -146 -27 -90 -3 -182
61 -241 24 -22 51 -44 60 -49 16 -9 14 -26 -17 -224 -44 -270 -77 -427 -122
-577 -39 -128 -130 -370 -143 -377 -11 -7 -95 252 -141 435 -33 133 -74 354
-95 510 l-6 45 53 13 c40 11 64 26 103 65 94 95 101 219 17 316 -38 45 -76 68
-141 84 l-43 12 38 44 c55 66 103 177 116 270 52 352 -243 667 -596 637 -228
-20 -417 -172 -492 -397 -26 -76 -26 -244 0 -320 23 -69 70 -155 109 -200 l30
-34 -44 -11 c-65 -17 -103 -40 -141 -85 -84 -97 -77 -221 17 -316 39 -39 63
-54 103 -64 29 -8 52 -19 52 -24 0 -6 -11 -81 -24 -166 -51 -320 -115 -565
-221 -843 -36 -92 -39 -97 -67 -97 -49 0 -74 -35 -81 -114 -7 -76 -45 -169
-92 -224 -15 -18 -64 -61 -109 -94 -120 -90 -116 -82 -116 -210 0 -61 5 -129
12 -152 16 -55 99 -138 154 -154 30 -9 177 -12 538 -12 l496 0 0 -56 c0 -31 5
-75 12 -98 16 -55 99 -138 154 -154 31 -9 318 -12 1194 -12 876 0 1163 3 1194
12 55 16 138 99 154 154 7 23 12 67 12 98 l0 56 496 0 c361 0 508 3 538 12 55
16 138 99 154 154 7 23 12 91 12 152 0 128 4 120 -116 210 -45 33 -94 76 -109
94 -47 55 -85 148 -92 224 -7 79 -32 114 -81 114 -28 0 -31 5 -65 93 -116 303
-195 626 -242 978 l-6 45 53 13 c40 11 64 26 103 65 94 95 101 219 17 316 -38
45 -76 68 -141 85 l-44 11 30 34 c186 215 172 547 -32 753 -297 300 -793 176
-931 -233 -26 -76 -26 -244 0 -320 23 -69 70 -155 109 -200 l30 -34 -44 -11
c-65 -17 -103 -40 -141 -85 -84 -97 -77 -221 17 -316 39 -39 63 -54 103 -64
29 -8 52 -19 52 -24 0 -27 -41 -281 -60 -371 -30 -145 -83 -342 -131 -485 -22
-69 -43 -127 -45 -129 -10 -10 -111 256 -153 403 -45 159 -78 315 -116 553
-32 201 -34 218 -18 227 9 5 36 27 59 48 66 61 89 150 62 240 -14 48 -90 136
-124 144 -23 6 -24 10 -24 95 l0 89 55 0 c46 0 60 4 80 25 50 49 15 135 -55
135 -16 0 -30 3 -30 8 0 4 39 95 87 202 86 190 88 197 88 271 0 67 -4 81 -30
125 -19 30 -49 60 -79 79 -48 29 -52 30 -203 33 l-153 4 0 119 0 119 58 0 c87
0 144 23 195 80 90 100 90 220 0 320 -51 57 -108 80 -195 80 l-58 0 0 56 c0
81 -18 129 -67 184 -65 72 -158 97 -253 67z m135 -172 c24 -23 25 -31 25 -135
0 -104 1 -112 25 -135 23 -24 31 -25 135 -25 104 0 112 -1 135 -25 33 -32 33
-78 0 -110 -23 -24 -31 -25 -135 -25 -104 0 -112 -1 -135 -25 -25 -24 -25 -27
-25 -200 l0 -175 -80 0 -80 0 0 175 c0 173 0 176 -25 200 -23 24 -31 25 -135
25 -104 0 -112 1 -135 25 -16 15 -25 36 -25 55 0 19 9 40 25 55 23 24 31 25
135 25 104 0 112 1 135 25 24 23 25 31 25 135 0 104 1 112 25 135 15 16 36 25
55 25 19 0 40 -9 55 -25z m469 -1036 c18 -14 26 -30 26 -52 0 -19 -41 -125
-101 -259 l-102 -228 -347 0 -347 0 -102 228 c-60 134 -101 240 -101 259 0 22
8 38 26 52 26 21 36 21 524 21 488 0 498 0 524 -21z m-1800 -257 c91 -42 149
-100 194 -190 35 -72 37 -81 37 -172 0 -91 -2 -100 -37 -172 -45 -91 -103
-147 -196 -191 -61 -29 -76 -32 -162 -32 -86 0 -101 3 -162 32 -93 44 -151
100 -196 191 -35 72 -37 81 -37 171 0 87 3 102 32 163 40 85 97 147 172 186
78 42 122 52 213 48 61 -3 92 -11 142 -34z m2880 0 c91 -42 149 -100 194 -190
35 -72 37 -81 37 -172 0 -91 -2 -100 -37 -172 -45 -91 -103 -147 -196 -191
-61 -29 -76 -32 -162 -32 -86 0 -101 3 -162 32 -93 44 -151 100 -196 191 -35
72 -37 81 -37 171 0 87 3 102 32 163 40 85 97 147 172 186 78 42 122 52 213
48 61 -3 92 -11 142 -34z m-1284 -522 l0 -80 -320 0 -320 0 0 80 0 80 320 0
320 0 0 -80z m135 -265 c16 -15 25 -36 25 -55 0 -19 -9 -40 -25 -55 l-24 -25
-431 0 -431 0 -24 25 c-16 15 -25 36 -25 55 0 19 9 40 25 55 l24 25 431 0 431
0 24 -25z m-1440 -160 c16 -15 25 -36 25 -55 0 -19 -9 -40 -25 -55 l-24 -25
-431 0 -431 0 -24 25 c-16 15 -25 36 -25 55 0 19 9 40 25 55 l24 25 431 0 431
0 24 -25z m2880 0 c16 -15 25 -36 25 -55 0 -19 -9 -40 -25 -55 l-24 -25 -431
0 -431 0 -24 25 c-16 15 -25 36 -25 55 0 19 9 40 25 55 l24 25 431 0 431 0 24
-25z m-1561 -157 c3 -13 21 -124 41 -248 69 -434 175 -782 331 -1092 19 -37
34 -70 34 -73 0 -3 -333 -5 -740 -5 -407 0 -740 2 -740 5 0 3 15 36 34 73 155
308 262 658 330 1082 20 124 39 237 42 253 l6 27 329 0 329 0 4 -22z m-1519
-190 c37 -301 113 -636 199 -880 29 -84 57 -161 61 -170 7 -17 -22 -18 -513
-18 l-520 0 53 153 c96 277 161 547 201 840 l17 127 248 0 247 0 7 -52z m2875
40 c0 -7 9 -74 20 -150 40 -282 105 -548 198 -815 l50 -143 -518 0 -518 0 50
143 c93 267 158 533 198 815 11 76 20 143 20 150 0 9 57 12 250 12 193 0 250
-3 250 -12z m-2704 -1291 c-18 -18 -24 -38 -29 -97 -6 -80 -23 -167 -35 -188
-7 -10 -130 -12 -585 -10 l-576 3 36 45 c44 55 100 172 109 229 l7 41 548 0
548 0 -23 -23z m3112 -29 c16 -70 61 -163 105 -218 l36 -45 -576 -3 c-317 -1
-578 0 -580 2 -11 11 -34 120 -40 191 -5 64 -11 84 -29 102 l-23 23 547 0 547
0 13 -52z m-1206 -161 c17 -124 79 -271 158 -375 l40 -52 -1091 0 -1090 0 34
43 c73 89 148 257 162 364 4 27 8 54 10 61 4 10 186 12 887 10 l883 -3 7 -48z
m-2073 -284 c-7 -10 -40 -46 -73 -81 l-60 -62 -519 0 -518 0 -24 25 c-21 20
-25 34 -25 80 l0 55 616 0 c585 0 616 -1 603 -17z m3581 -38 c0 -46 -4 -60
-25 -80 l-24 -25 -518 0 -519 0 -60 63 c-33 34 -66 70 -73 80 -13 16 18 17
603 17 l616 0 0 -55z m-1200 -320 c0 -46 -4 -60 -25 -80 l-24 -25 -1151 0
-1151 0 -24 25 c-21 20 -25 34 -25 80 l0 55 1200 0 1200 0 0 -55z"/>
</g>
</svg>
