<?xml version="1.0" standalone="no"?>
<!DOCTYPE svg PUBLIC "-//W3C//DTD SVG 20010904//EN"
 "http://www.w3.org/TR/2001/REC-SVG-20010904/DTD/svg10.dtd">
<svg version="1.0" xmlns="http://www.w3.org/2000/svg"
 width="512.000000pt" height="512.000000pt" viewBox="0 0 512.000000 512.000000"
 preserveAspectRatio="xMidYMid meet">

<g transform="translate(0.000000,512.000000) scale(0.100000,-0.100000)"
fill="#FFFFFF" stroke="none">
<path d="M1283 3872 c-700 -290 -1273 -529 -1273 -532 0 -3 269 -116 598 -251
l597 -247 5 -542 5 -543 95 -53 c331 -185 745 -300 1151 -319 444 -21 959 101
1349 319 l95 53 5 542 5 543 295 122 295 122 3 -608 2 -608 -155 -326 -154
-326 231 -244 232 -244 32 32 c89 91 414 452 414 460 0 5 -68 156 -150 336
l-150 327 2 665 3 664 147 60 c81 34 148 63 148 66 0 4 -2494 1039 -2540 1054
-8 3 -588 -232 -1287 -522z m2169 -164 c482 -200 874 -366 870 -370 -8 -8
-1718 -716 -1748 -724 -15 -4 -316 116 -895 356 -481 199 -877 365 -881 368
-7 8 1727 729 1757 731 11 1 415 -162 897 -361z m-1409 -1212 l518 -215 507
211 c279 115 515 212 525 215 16 5 17 -18 17 -385 l0 -390 -103 -45 c-623
-273 -1276 -272 -1899 3 l-98 43 0 388 c0 214 3 389 8 389 4 0 240 -96 525
-214z m2670 -1117 l47 -102 -46 -54 c-26 -30 -49 -53 -53 -51 -3 2 -28 26 -54
54 l-47 51 48 101 c26 56 50 102 53 102 3 0 27 -46 52 -101z"/>
<path d="M2450 3445 l-105 -105 108 -108 107 -107 107 107 108 108 -105 105
c-58 58 -107 105 -110 105 -3 0 -52 -47 -110 -105z"/>
</g>
</svg>
