<?xml version="1.0" standalone="no"?>
<!DOCTYPE svg PUBLIC "-//W3C//DTD SVG 20010904//EN"
 "http://www.w3.org/TR/2001/REC-SVG-20010904/DTD/svg10.dtd">
<svg version="1.0" xmlns="http://www.w3.org/2000/svg"
 width="512.000000pt" height="101.000000pt" viewBox="0 0 512.000000 101.000000"
 preserveAspectRatio="xMidYMid meet">

<g transform="translate(0.000000,101.000000) scale(0.100000,-0.100000)"
fill="#880000" stroke="none">
<path d="M1135 891 l-30 -6 25 -19 c19 -14 20 -17 5 -12 -50 18 -132 36 -160
36 -47 0 -60 -13 -58 -61 4 -81 60 -164 168 -247 26 -20 23 -20 -23 4 -85 44
-151 130 -167 217 -8 41 -8 41 -105 38 -77 -3 -200 -36 -302 -81 -90 -40 -256
-144 -318 -200 -32 -29 -33 -31 -10 -25 205 48 385 19 479 -79 19 -20 39 -36
43 -36 4 0 8 27 8 60 l0 60 80 0 80 0 24 -47 c48 -95 49 -95 87 -22 l34 64 83
3 82 3 0 -131 c0 -71 3 -130 6 -130 4 0 24 18 45 39 40 42 88 61 154 61 22 0
63 3 92 6 48 6 51 8 42 26 -14 26 3 45 50 58 20 5 111 25 202 44 92 18 179 40
195 47 48 24 98 136 62 141 -7 0 -18 2 -24 2 -6 1 -18 6 -25 12 -67 52 -447
151 -669 174 -104 11 -111 11 -155 1z m-92 -89 c61 -28 103 -62 77 -62 -7 0
-10 -7 -6 -16 4 -12 2 -15 -9 -10 -17 6 -21 -9 -4 -19 6 -4 8 -14 5 -22 -4 -9
-1 -22 5 -29 26 -31 -12 -11 -59 31 -51 46 -99 126 -87 145 8 14 7 14 78 -18z
m482 -43 c28 -5 68 -15 90 -21 34 -9 37 -12 20 -19 -28 -11 -119 -11 -149 1
-22 8 -66 44 -66 54 0 4 30 -1 105 -15z m52 -215 c-3 -3 -12 -4 -19 -1 -8 3
-5 6 6 6 11 1 17 -2 13 -5z m-41 -12 c-3 -5 -23 -17 -45 -27 -24 -11 -44 -28
-50 -44 l-10 -26 2 30 c2 25 10 34 47 53 46 23 65 28 56 14z"/>
<path d="M2320 783 c-8 -3 -27 -15 -42 -25 -28 -19 -28 -19 -28 1 0 14 -6 21
-20 21 -20 0 -20 -5 -18 -182 3 -155 5 -183 18 -183 12 0 16 23 20 130 4 103
9 137 23 158 31 48 97 61 138 28 23 -18 24 -27 29 -168 4 -123 8 -148 20 -148
12 0 16 24 20 138 l5 139 33 29 c37 33 84 38 120 13 21 -14 22 -22 22 -158 0
-143 6 -171 36 -159 10 4 14 24 14 67 l1 61 24 -46 c33 -64 76 -89 154 -89 56
0 64 3 100 36 22 19 46 54 55 77 l14 42 1 -71 c1 -57 4 -73 18 -78 27 -11 33
13 33 143 l0 123 34 34 c44 44 103 48 141 9 24 -23 25 -29 25 -164 0 -77 4
-142 9 -145 5 -4 17 -3 26 0 16 6 17 22 13 156 l-4 149 -31 31 c-45 45 -117
51 -172 15 -38 -25 -39 -25 -44 -6 -4 13 -12 19 -24 17 -15 -3 -19 -16 -23
-73 l-5 -70 -13 40 c-20 69 -84 115 -158 115 -66 0 -122 -37 -156 -104 l-15
-29 -11 46 c-25 96 -127 119 -208 45 -22 -19 -22 -19 -35 0 -27 37 -91 53
-139 35z m620 -46 c30 -14 70 -89 70 -130 0 -49 -21 -105 -51 -133 -22 -21
-38 -27 -73 -27 -86 0 -131 61 -124 164 8 110 91 169 178 126z"/>
<path d="M3475 776 c-42 -18 -83 -69 -91 -112 -17 -93 14 -199 71 -234 44 -27
128 -27 173 0 18 11 35 20 39 20 14 0 -8 -84 -28 -106 -50 -53 -158 -53 -193
1 -16 25 -56 35 -56 15 0 -23 36 -63 67 -76 46 -20 141 -18 182 4 68 34 75 73
72 395 -1 87 -3 98 -18 95 -9 -2 -20 -14 -23 -27 -5 -22 -6 -23 -20 -6 -35 42
-117 56 -175 31z m125 -39 c101 -51 91 -250 -14 -285 -78 -25 -147 27 -161
121 -18 121 79 212 175 164z"/>
<path d="M3821 773 c-18 -9 -45 -34 -59 -56 -23 -34 -27 -51 -27 -116 0 -59 5
-84 21 -111 32 -55 77 -80 143 -80 66 0 109 22 143 73 l22 34 21 -31 c34 -51
81 -76 142 -76 63 0 103 18 133 60 26 36 36 38 44 6 10 -38 68 -69 132 -68 65
0 113 25 134 68 l15 30 20 -30 c63 -94 222 -92 278 3 18 31 16 51 -5 51 -6 0
-27 -19 -47 -42 -33 -37 -42 -41 -82 -41 -74 0 -116 35 -121 103 l-3 35 140 5
140 5 -3 40 c-5 55 -44 119 -86 139 -70 33 -154 13 -200 -46 -26 -35 -53 -139
-41 -158 10 -17 -8 -11 -29 9 -12 11 -55 29 -96 40 -47 12 -81 28 -92 41 -23
29 -23 36 7 65 17 18 35 25 63 25 42 0 92 -30 92 -56 0 -8 10 -14 26 -14 22 0
24 3 19 23 -19 62 -96 98 -179 83 -46 -9 -86 -50 -86 -90 l0 -31 -28 43 c-71
111 -248 107 -294 -8 -9 -23 -11 -24 -22 -6 -44 71 -85 96 -158 96 -24 0 -58
-8 -77 -17z m139 -38 c46 -24 63 -66 58 -151 -4 -84 -25 -116 -89 -135 -50
-15 -107 11 -131 61 -37 73 -12 201 44 227 33 17 84 15 118 -2z m347 -19 c35
-32 37 -38 41 -102 4 -83 -17 -130 -69 -157 -119 -62 -223 98 -153 235 18 35
59 57 107 58 29 0 46 -8 74 -34z m599 15 c34 -21 64 -85 47 -102 -5 -5 -59 -8
-119 -7 l-109 3 3 25 c10 82 106 125 178 81z m-378 -151 c31 -7 67 -18 80 -26
27 -18 29 -54 3 -85 -27 -33 -110 -33 -146 1 -14 13 -25 30 -25 37 0 7 -10 17
-22 22 -20 8 -23 14 -20 59 l4 50 34 -23 c19 -13 61 -29 92 -35z"/>
<path d="M850 255 l0 -95 75 0 75 0 0 98 -1 97 -24 -30 c-14 -16 -28 -38 -31
-47 -8 -28 -21 -22 -54 27 -17 25 -33 45 -35 45 -3 0 -5 -43 -5 -95z"/>
</g>
</svg>
