<?xml version="1.0" standalone="no"?>
<!DOCTYPE svg PUBLIC "-//W3C//DTD SVG 20010904//EN"
 "http://www.w3.org/TR/2001/REC-SVG-20010904/DTD/svg10.dtd">
<svg version="1.0" xmlns="http://www.w3.org/2000/svg"
 width="239.000000pt" height="141.000000pt" viewBox="0 0 239.000000 141.000000"
 preserveAspectRatio="xMidYMid meet">

<g transform="translate(0.000000,141.000000) scale(0.100000,-0.100000)"
fill="#880000" stroke="none">
<path d="M1230 1313 l-24 -5 24 -15 c15 -8 17 -12 6 -9 -58 19 -107 27 -137
24 -31 -3 -34 -6 -37 -40 -6 -67 54 -156 138 -207 44 -26 32 -27 -18 -2 -67
35 -141 136 -142 194 0 18 -11 20 -90 17 -117 -4 -308 -85 -448 -189 -85 -63
-99 -82 -46 -60 16 7 76 13 134 13 121 1 177 -18 243 -82 l37 -36 0 52 0 52
68 0 69 0 28 -51 28 -52 18 24 c10 13 24 36 30 52 11 26 15 27 80 27 l69 0 0
-106 0 -106 39 35 c22 20 55 38 73 41 63 11 93 14 132 15 35 1 38 3 32 25 -3
14 -2 27 4 31 5 3 83 21 174 40 90 19 175 40 189 46 40 18 77 119 44 119 -7 0
-18 -5 -24 -11 -8 -8 -11 -6 -10 6 4 35 -288 122 -499 150 -116 15 -139 16
-184 8z m-49 -84 c19 -9 42 -25 50 -35 12 -15 12 -17 0 -9 -11 6 -13 4 -8 -8
4 -12 2 -14 -11 -10 -15 6 -15 5 -3 -10 8 -10 11 -20 8 -24 -4 -3 -1 -15 5
-27 10 -19 8 -18 -23 5 -45 34 -99 106 -99 130 0 23 17 20 81 -12z m371 -24
c112 -24 120 -28 73 -36 -55 -11 -105 -1 -138 27 -34 28 -31 29 65 9z m0 -200
c-31 -14 -56 -34 -62 -47 -9 -23 -9 -23 -9 3 -1 22 7 30 47 47 66 30 88 27 24
-3z"/>
<path d="M1010 793 l0 -83 60 0 60 0 -1 83 c0 80 0 81 -17 58 -47 -69 -46 -68
-75 -20 l-26 44 -1 -82z"/>
<path d="M127 500 c-30 -24 -37 -25 -37 -5 0 8 -7 15 -15 15 -13 0 -15 -23
-15 -150 0 -127 2 -150 15 -150 12 0 15 16 15 88 0 120 12 159 56 180 32 15
38 15 62 1 27 -15 27 -16 30 -142 2 -117 4 -127 21 -127 18 0 20 10 23 115 3
99 6 117 23 135 32 31 79 36 104 11 19 -19 21 -32 21 -141 0 -113 1 -120 20
-120 17 0 20 7 20 53 l1 52 13 -31 c28 -64 103 -96 170 -74 100 33 128 184 51
269 -31 34 -37 36 -93 36 -50 0 -65 -4 -87 -25 -15 -14 -33 -38 -40 -55 l-13
-29 -11 42 c-15 55 -47 76 -102 69 -23 -3 -51 -15 -64 -27 -19 -18 -25 -19
-32 -7 -23 39 -96 49 -136 17z m552 -45 c32 -32 41 -117 16 -164 -31 -61 -111
-73 -157 -24 -32 34 -34 149 -3 183 41 46 101 48 144 5z"/>
<path d="M844 511 c-12 -5 -25 -14 -29 -20 -9 -16 -25 -13 -25 4 0 8 -7 15
-15 15 -13 0 -15 -23 -15 -150 0 -127 2 -150 15 -150 12 0 15 17 15 96 0 108
15 154 56 173 38 17 63 13 89 -14 24 -23 25 -30 25 -140 0 -111 1 -115 21
-115 21 0 21 3 17 125 -4 118 -5 127 -29 151 -28 28 -89 40 -125 25z"/>
<path d="M1094 511 c-79 -34 -106 -171 -49 -257 34 -52 125 -66 179 -28 31 21
35 18 25 -23 -17 -80 -106 -110 -168 -57 -17 14 -38 24 -48 22 -14 -3 -12 -9
13 -37 27 -31 38 -35 91 -39 73 -5 114 13 137 62 23 49 24 356 1 356 -8 0 -15
-9 -15 -21 0 -20 0 -20 -31 2 -34 24 -102 34 -135 20z m105 -36 c60 -31 74
-150 24 -204 -62 -67 -154 -31 -169 64 -8 60 10 112 50 136 37 23 58 24 95 4z"/>
<path d="M1385 508 c-92 -50 -111 -193 -36 -268 58 -58 160 -44 208 28 19 30
22 31 28 13 9 -30 61 -69 100 -77 46 -8 101 12 127 47 27 36 32 36 46 3 35
-76 192 -64 217 17 7 20 8 19 26 -11 25 -41 80 -64 133 -55 23 3 48 11 56 18
19 14 50 58 50 69 0 19 -32 6 -58 -23 -21 -24 -36 -31 -64 -31 -60 0 -87 22
-102 85 l-6 27 114 0 c63 0 117 4 121 9 3 6 0 30 -6 55 -15 59 -55 97 -111
103 -84 8 -148 -54 -148 -146 0 -38 -2 -42 -16 -30 -8 7 -50 24 -92 38 -73 25
-77 28 -77 56 0 36 38 61 78 51 27 -6 36 -14 62 -51 10 -15 17 -17 25 -9 9 9
8 19 -4 42 -43 83 -205 59 -206 -31 l-1 -32 -13 30 c-7 17 -26 41 -41 55 -22
21 -36 25 -87 25 -58 0 -62 -1 -97 -42 l-37 -42 -17 28 c-30 51 -122 77 -172
49z m104 -33 c38 -19 54 -63 49 -130 -7 -89 -63 -130 -136 -99 -57 24 -79 114
-44 184 27 56 78 73 131 45z m290 -19 c31 -32 39 -107 17 -159 -27 -66 -109
-82 -158 -30 -32 34 -34 149 -3 183 41 46 101 48 144 6z m482 17 c24 -15 49
-57 49 -84 0 -10 -183 -12 -193 -3 -12 13 17 67 47 85 38 23 60 24 97 2z
m-315 -123 c70 -15 99 -38 90 -73 -14 -56 -122 -54 -152 4 -8 16 -20 29 -27
29 -8 0 -11 14 -9 44 4 45 4 45 24 26 12 -11 45 -24 74 -30z"/>
</g>
</svg>
