<?xml version="1.0" standalone="no"?>
<!DOCTYPE svg PUBLIC "-//W3C//DTD SVG 20010904//EN"
 "http://www.w3.org/TR/2001/REC-SVG-20010904/DTD/svg10.dtd">
<svg version="1.0" xmlns="http://www.w3.org/2000/svg"
 width="644.000000pt" height="716.000000pt" viewBox="0 0 644.000000 716.000000"
 preserveAspectRatio="xMidYMid meet">
<metadata>
Created by potrace 1.16, written by Peter Selinger 2001-2019
</metadata>
<g transform="translate(0.000000,716.000000) scale(0.100000,-0.100000)"
fill="#56c6e2" stroke="none">
<path d="M2045 6979 c-77 -10 -134 -30 -189 -68 -225 -155 -301 -567 -204
-1106 34 -190 41 -172 -82 -215 -322 -113 -567 -250 -728 -410 -407 -403 -117
-861 734 -1159 73 -25 108 -43 107 -52 -1 -8 -13 -79 -27 -159 -85 -490 -36
-860 140 -1049 242 -262 705 -138 1243 332 l75 64 120 -101 c353 -297 656
-437 914 -424 81 5 102 10 167 42 127 63 212 185 262 374 21 81 26 127 30 282
6 197 -8 354 -48 549 -10 51 -19 96 -19 100 0 4 26 15 58 25 243 76 519 213
678 337 191 150 284 306 284 473 -2 292 -343 581 -923 782 -87 30 -107 40
-102 53 4 9 17 80 31 159 114 673 -24 1108 -371 1173 -241 45 -589 -105 -955
-412 -131 -110 -131 -110 -154 -92 -13 10 -68 55 -122 101 -340 286 -675 432
-919 401z m2164 -233 c32 -17 84 -73 106 -115 83 -162 90 -561 14 -894 -10
-43 -14 -48 -33 -43 -56 16 -324 66 -431 80 -66 9 -134 19 -151 21 -25 4 -45
23 -102 98 -82 108 -179 224 -276 331 l-69 76 48 43 c259 229 506 375 706 417
56 12 151 4 188 -14z m-1965 -2 c170 -43 487 -238 668 -412 l37 -35 -82 -91
c-100 -111 -195 -226 -271 -328 -46 -62 -64 -78 -90 -83 -17 -2 -85 -12 -151
-21 -106 -14 -352 -60 -427 -79 -20 -5 -27 -3 -31 12 -58 198 -80 607 -43 773
31 136 90 234 161 266 41 18 154 17 229 -2z m1039 -797 c51 -60 93 -111 95
-115 1 -4 -119 -8 -268 -7 -148 0 -270 2 -270 4 0 7 112 142 188 228 l75 84
44 -43 c24 -24 86 -92 136 -151z m181 -354 l99 -6 82 -126 c110 -169 212 -346
297 -516 l70 -139 -47 -96 c-120 -243 -371 -661 -409 -682 -25 -14 -534 -23
-738 -13 l-157 7 -89 137 c-107 162 -228 372 -308 532 l-57 116 87 168 c89
172 231 413 317 542 l49 72 73 4 c140 6 633 7 731 0z m-1104 -49 c0 -3 -31
-56 -68 -117 -38 -62 -97 -165 -132 -230 -35 -64 -67 -114 -70 -110 -21 23
-138 378 -129 387 4 4 278 59 339 69 42 7 60 7 60 1z m1745 -35 c82 -17 152
-33 154 -35 6 -5 -92 -302 -117 -356 l-17 -38 -73 133 c-40 72 -101 179 -137
236 l-65 104 52 -7 c29 -4 120 -21 203 -37z m-2310 -264 c29 -88 79 -221 109
-294 31 -74 56 -139 56 -145 0 -5 -25 -72 -56 -149 -58 -144 -154 -420 -154
-444 0 -19 -8 -17 -148 33 -418 151 -722 386 -722 559 0 168 270 387 665 540
148 57 168 64 183 62 8 -1 36 -71 67 -162z m2832 120 c254 -94 491 -232 604
-352 73 -78 100 -127 107 -195 17 -176 -282 -413 -722 -572 -70 -26 -130 -45
-133 -43 -2 3 -30 83 -63 178 -32 96 -81 228 -109 294 -28 66 -51 125 -51 131
0 5 31 89 69 185 38 96 87 229 108 297 44 144 27 137 190 77z m-2488 -912 c21
-43 82 -149 134 -235 53 -87 92 -158 87 -158 -16 0 -326 60 -362 70 -21 6 -38
15 -38 19 0 8 98 300 119 354 6 15 13 27 16 27 2 0 22 -35 44 -77z m2028 -18
c53 -141 95 -275 90 -289 -4 -10 -103 -33 -369 -82 -16 -3 -28 -3 -28 1 0 3
35 66 78 138 44 73 103 176 132 230 29 54 56 95 60 90 4 -4 21 -44 37 -88z
m-2134 -540 c126 -27 325 -60 428 -70 36 -4 70 -10 76 -14 5 -3 38 -44 73 -90
91 -120 203 -255 279 -334 l65 -67 -30 -31 c-42 -44 -211 -179 -297 -238 -303
-204 -565 -258 -673 -139 -32 34 -69 114 -90 193 -26 96 -27 472 -1 616 26
147 38 199 47 199 5 0 60 -11 123 -25z m2314 -95 c78 -411 41 -782 -91 -897
-48 -43 -96 -57 -175 -50 -206 18 -469 164 -778 434 l-33 28 82 90 c69 77 135
158 305 371 31 39 36 42 100 49 98 10 409 63 468 80 96 27 97 26 122 -105z
m-967 -16 c0 -8 -135 -169 -209 -251 l-59 -63 -56 60 c-49 53 -167 193 -205
243 -13 16 1 17 258 17 149 0 271 -3 271 -6z"/>
<path d="M2968 5237 c-270 -92 -389 -382 -262 -637 41 -81 127 -166 208 -204
326 -154 694 116 645 474 -39 278 -326 457 -591 367z"/>
<path d="M338 2110 l-28 -21 0 -820 0 -819 28 -11 c28 -11 160 -8 180 5 9 5
12 107 12 378 l0 370 123 -4 c145 -5 190 -22 261 -97 58 -63 79 -106 192 -394
52 -133 99 -246 105 -252 14 -14 158 -19 193 -6 25 10 28 15 23 45 -8 48 -210
539 -249 602 -38 63 -100 129 -142 151 l-29 15 72 37 c170 86 251 214 251 399
0 164 -83 303 -222 373 -111 56 -148 62 -458 66 -281 5 -285 5 -312 -17z m566
-184 c120 -36 177 -110 184 -237 6 -105 -10 -158 -65 -219 -69 -77 -121 -93
-325 -98 l-168 -4 0 286 0 286 163 0 c113 0 179 -4 211 -14z"/>
<path d="M5542 1984 c-21 -14 -22 -22 -22 -160 l0 -144 -90 0 c-104 0 -110 -5
-110 -90 0 -85 6 -90 110 -90 l90 0 0 -362 c0 -413 6 -476 52 -567 40 -77 87
-114 178 -137 114 -29 294 -3 320 47 12 22 13 129 1 148 -8 12 -21 11 -84 -8
-94 -28 -148 -21 -193 24 -18 17 -37 49 -43 70 -7 26 -11 173 -11 413 l0 372
154 0 c149 0 155 1 170 22 18 26 21 109 6 139 -10 18 -23 19 -170 19 l-160 0
0 144 c0 173 -2 176 -110 176 -43 0 -73 -5 -88 -16z"/>
<path d="M2062 1680 c-146 -38 -255 -125 -325 -257 -61 -116 -79 -203 -79
-373 0 -224 42 -354 149 -470 106 -115 267 -168 478 -157 169 9 371 67 389
112 9 24 7 118 -3 134 -11 17 -38 12 -154 -29 -259 -91 -488 -46 -583 116 -27
46 -54 155 -54 222 l0 42 400 0 401 0 24 25 c23 22 25 32 25 110 0 227 -88
398 -248 483 -116 62 -281 78 -420 42z m306 -185 c86 -47 133 -127 147 -252
l7 -63 -321 0 -321 0 0 23 c0 35 25 118 49 164 29 59 96 119 156 143 78 31
212 24 283 -15z"/>
<path d="M3340 1685 c-125 -25 -266 -91 -290 -134 -23 -45 -5 -151 26 -151 9
0 49 17 88 39 112 61 196 85 301 84 189 0 265 -80 265 -275 l0 -78 -87 0 c-49
0 -132 -5 -186 -10 -239 -23 -372 -92 -439 -227 -30 -61 -33 -75 -33 -158 0
-83 3 -97 33 -157 50 -102 137 -164 262 -188 155 -29 299 7 428 109 l52 41 0
-64 c0 -77 10 -86 92 -86 96 0 89 -41 86 505 -3 473 -3 481 -26 536 -29 71
-86 137 -148 171 -98 53 -282 72 -424 43z m390 -804 l0 -129 -57 -51 c-81 -72
-152 -105 -234 -109 -37 -2 -84 1 -104 8 -88 29 -143 117 -132 212 9 71 44
120 109 152 74 36 121 44 281 45 l137 1 0 -129z"/>
<path d="M4671 1684 c-95 -20 -168 -60 -237 -129 -108 -107 -161 -248 -171
-456 -21 -425 171 -678 515 -679 129 0 294 56 367 124 34 32 35 36 35 105 0
68 -11 111 -29 111 -4 0 -32 -19 -62 -41 -30 -23 -85 -56 -124 -75 -62 -31
-78 -34 -155 -34 -103 0 -165 25 -222 88 -76 84 -102 173 -102 357 0 140 11
208 51 293 54 115 138 166 273 166 96 1 154 -20 258 -94 32 -22 65 -40 74 -40
41 0 50 136 12 187 -31 41 -124 91 -208 113 -91 23 -183 25 -275 4z"/>
</g>
</svg>
