<?xml version="1.0" standalone="no"?>
<!DOCTYPE svg PUBLIC "-//W3C//DTD SVG 20010904//EN"
 "http://www.w3.org/TR/2001/REC-SVG-20010904/DTD/svg10.dtd">
<svg version="1.0" xmlns="http://www.w3.org/2000/svg"
 width="512.000000pt" height="512.000000pt" viewBox="0 0 512.000000 512.000000"
 preserveAspectRatio="xMidYMid meet">

<g transform="translate(0.000000,512.000000) scale(0.100000,-0.100000)"
fill="#FFFFFF" stroke="none">
<path d="M1595 4769 c-634 -239 -941 -359 -965 -378 -45 -36 -68 -77 -76 -132
-12 -87 30 -170 105 -208 20 -10 230 -89 466 -176 237 -86 432 -159 434 -161
2 -2 -14 -43 -37 -92 -206 -443 -120 -943 223 -1299 l71 -74 -35 -15 c-20 -9
-57 -24 -83 -35 -356 -142 -724 -453 -959 -811 -159 -242 -301 -614 -316 -828
-18 -257 180 -506 437 -550 46 -8 555 -10 1740 -8 l1675 3 59 23 c164 62 270
167 333 329 22 57 26 85 27 173 1 64 -4 120 -12 143 -50 140 -218 181 -325 79
-49 -47 -61 -79 -59 -167 2 -92 -15 -131 -70 -165 -32 -19 -52 -20 -710 -20
-373 0 -678 2 -678 4 0 9 532 1362 538 1368 9 8 129 -63 236 -141 48 -34 139
-114 204 -178 136 -133 179 -159 256 -149 134 16 214 160 156 281 -11 23 -66
88 -122 145 -173 173 -337 294 -543 401 -96 50 -137 69 -241 109 -19 7 -14 15
58 90 335 351 420 856 217 1289 -22 47 -36 88 -32 92 9 8 580 219 593 219 5 0
11 -227 12 -522 l3 -523 24 -38 c13 -21 42 -50 64 -65 34 -23 52 -27 107 -27
55 0 73 4 107 27 22 15 51 44 64 65 l24 38 3 683 c2 455 -1 696 -8 722 -13 49
-52 95 -99 119 -20 10 -446 175 -948 365 -636 241 -923 346 -950 346 -25 -1
-354 -120 -968 -351z m1865 -403 c195 -74 348 -137 340 -140 -8 -3 -132 -49
-275 -101 -169 -62 -269 -94 -285 -91 -14 2 -62 16 -107 30 -159 49 -280 61
-593 60 -312 -1 -431 -15 -592 -69 l-78 -26 -267 97 c-148 53 -272 100 -276
104 -4 4 241 101 545 215 304 114 585 220 623 235 l70 26 270 -102 c149 -57
430 -163 625 -238z m-625 -651 c163 -20 246 -44 280 -81 75 -83 146 -218 176
-335 18 -70 18 -268 0 -339 -69 -274 -287 -492 -561 -561 -71 -18 -269 -18
-340 0 -274 69 -492 287 -561 561 -18 71 -18 269 0 339 31 121 105 261 179
337 36 37 111 60 256 79 141 18 427 18 571 0z m-95 -1745 c83 -9 251 -39 259
-46 5 -4 -432 -1124 -439 -1124 -7 0 -444 1120 -439 1124 7 6 178 38 247 46
98 11 275 11 372 0z m-732 -867 c143 -368 264 -676 268 -685 6 -17 -30 -18
-671 -18 -763 0 -724 -4 -766 75 -22 41 -22 47 -10 110 57 312 290 714 538
931 119 104 336 254 368 254 6 0 129 -300 273 -667z"/>
</g>
</svg>
