<?xml version="1.0" standalone="no"?>
<!DOCTYPE svg PUBLIC "-//W3C//DTD SVG 20010904//EN"
 "http://www.w3.org/TR/2001/REC-SVG-20010904/DTD/svg10.dtd">
<svg version="1.0" xmlns="http://www.w3.org/2000/svg"
 width="512.000000pt" height="512.000000pt" viewBox="0 0 512.000000 512.000000"
 preserveAspectRatio="xMidYMid meet">

<g transform="translate(0.000000,512.000000) scale(0.100000,-0.100000)"
fill="#000000" stroke="none">
<path d="M1285 3554 c-693 -267 -1263 -488 -1267 -492 -6 -7 497 -192 520
-192 6 0 20 20 31 45 22 50 25 51 147 60 65 5 83 3 93 -9 13 -15 -3 -22 -99
-41 -64 -13 -47 16 -195 -346 -137 -336 -214 -624 -223 -826 l-5 -123 54 -24
c81 -37 188 -51 274 -36 79 14 153 43 160 62 3 10 57 890 67 1117 l3 55 165
37 c91 21 170 38 177 39 9 0 9 -8 2 -30 -10 -27 -21 -32 -140 -70 -71 -22
-129 -43 -129 -46 0 -8 43 -22 847 -270 l793 -244 747 230 c562 172 879 276
1275 417 290 103 524 191 520 195 -10 10 -2531 978 -2545 977 -7 0 -579 -218
-1272 -485z"/>
<path d="M1032 2092 l3 -427 34 -67 c128 -256 591 -454 1186 -508 143 -13 469
-13 615 1 596 54 1057 252 1183 508 l32 66 3 427 3 427 -28 -8 c-15 -5 -360
-111 -765 -235 l-738 -227 -737 227 c-406 124 -751 230 -766 235 l-28 8 3
-427z"/>
</g>
</svg>
