<?xml version="1.0" standalone="no"?>
<!DOCTYPE svg PUBLIC "-//W3C//DTD SVG 20010904//EN"
 "http://www.w3.org/TR/2001/REC-SVG-20010904/DTD/svg10.dtd">
<svg version="1.0" xmlns="http://www.w3.org/2000/svg"
 width="512.000000pt" height="512.000000pt" viewBox="0 0 512.000000 512.000000"
 preserveAspectRatio="xMidYMid meet">

<g transform="translate(0.000000,512.000000) scale(0.100000,-0.100000)"
fill="#FFFFFF" stroke="none">
<path d="M2555 5114 c-157 -18 -228 -31 -340 -59 -563 -144 -1041 -535 -1295
-1060 -145 -299 -200 -553 -200 -924 l0 -198 -156 -514 c-111 -369 -153 -522
-149 -544 8 -44 40 -92 72 -108 15 -8 141 -54 280 -102 l252 -87 3 -379 c3
-363 4 -379 24 -405 11 -15 33 -37 48 -48 26 -20 41 -21 431 -24 l404 -3 3
-279 c3 -263 4 -280 24 -306 11 -15 33 -37 48 -48 27 -21 36 -21 982 -24 934
-2 955 -2 993 18 27 13 45 33 60 63 21 43 21 51 21 807 l0 763 89 92 c211 218
360 466 456 759 230 699 58 1460 -450 1994 -329 346 -771 564 -1244 611 -96
10 -287 12 -356 5z m372 -309 c198 -26 337 -68 519 -155 304 -147 547 -369
722 -661 291 -485 316 -1094 67 -1604 -95 -193 -235 -381 -378 -508 -39 -34
-76 -76 -83 -94 -11 -26 -14 -169 -14 -758 l0 -725 -765 0 -765 0 0 278 c0
259 -1 279 -20 310 -11 18 -34 41 -52 52 -32 19 -52 20 -435 20 l-403 0 0 354
c0 350 0 353 -23 387 -30 46 -75 66 -322 151 -116 39 -213 74 -217 77 -4 4 51
200 124 436 l131 430 7 275 c6 226 11 293 29 379 74 351 220 621 465 866 153
152 275 242 441 324 308 153 638 209 972 166z"/>
<path d="M2580 4514 c-314 -38 -542 -132 -766 -315 -248 -202 -425 -512 -479
-838 -21 -124 -16 -383 9 -496 38 -171 113 -346 208 -490 78 -118 261 -298
386 -380 166 -108 347 -178 552 -211 125 -21 368 -13 490 15 363 83 668 294
862 596 148 230 220 473 220 745 0 381 -135 706 -406 975 -258 256 -562 387
-926 399 -63 2 -131 2 -150 0z m364 -328 c197 -50 368 -146 505 -284 328 -329
408 -820 201 -1237 -112 -228 -302 -408 -533 -507 -231 -100 -506 -115 -740
-41 -362 114 -632 398 -728 766 -27 104 -37 315 -19 425 75 469 453 838 925
901 106 15 281 4 389 -23z"/>
<path d="M2616 3949 c-70 -11 -168 -63 -224 -117 -87 -85 -146 -252 -122 -343
19 -71 105 -121 179 -104 64 14 103 64 115 147 18 120 139 164 220 79 60 -63
39 -153 -47 -199 -74 -40 -133 -97 -164 -160 -24 -49 -27 -70 -31 -171 -3
-100 -1 -121 16 -151 59 -107 211 -107 264 0 13 24 18 59 18 115 l1 80 61 35
c237 136 287 453 103 658 -53 59 -157 116 -239 131 -66 12 -79 12 -150 0z"/>
<path d="M2635 2696 c-36 -16 -82 -67 -91 -102 -15 -59 25 -137 87 -169 89
-46 209 31 209 134 0 19 -11 53 -25 76 -39 67 -111 91 -180 61z"/>
</g>
</svg>
