<svg xmlns="http://www.w3.org/2000/svg" viewBox="443 2 388.2 797.8">
<g>
<path fill="#339" d="M645.8 524.4c-4.9-2.9-12.6-6.3-18.5-6.3-9.7.5-24.3 8.3-24.3 8.3s-3.9-3.9-21.4 7.8-35 15.6-35 15.6l-14.6 6.8s-25.3-2.4-29.2-5.3c-3.9-2.9-9.2-17-9.2-19s-.5-13.1-2.9-20.4c-2.9-7.8-6.3-14.1-6.3-14.1s-6.3-16.5-11.2-30.6-3.9-54.9-3.9-54.9v-22.8s-5.8 66.6-4.9 78.7-1 43.3 0 55.9c1 12.6 2.9 29.6-.5 39.9-3.4 10.2 2.9 44.7 2.9 44.7l5.8-3.9s-2.9 34.5 1.5 44.7c3.9 10.2 10.2 40.3 20.4 57.4l1.5-6.8s9.2 22.4 14.1 26.7c4.4 4.4 36.9 36.5 62.7 47.1 25.3 10.2 42.8 18.5 42.8 18.5l23.3 4.9 7.3 2.4 7.3-2.4 23.3-4.9s17.5-8.3 42.8-18.5 58.3-42.3 62.7-47.1c4.4-4.4 14.1-26.7 14.1-26.7l1.5 6.8c10.2-17 16.5-47.1 20.4-57.4 3.9-10.2 1.5-44.7 1.5-44.7l5.8 3.9s6.3-34.5 2.9-44.7c-3.4-10.2-1.5-27.2-.5-39.9 1-12.6-1-43.7 0-55.9 1-12.2-4.9-78.7-4.9-78.7v22.8s1 41.3-3.9 54.9c-4.9 14.1-11.2 30.6-11.2 30.6s-3.4 6.3-6.3 14.1-2.9 19-2.9 20.4c0 1.9-5.3 15.6-9.2 19-3.9 2.9-29.2 5.3-29.2 5.3l-14.6-6.8s-17.5-3.9-35-15.6-21.4-7.8-21.4-7.8-14.1-8.3-24.3-8.3c-6.6 0-13.9 3.4-19.3 6.3zm0 62.2c-13.6.5-35-.5-37.4-.5-2.9 0-25.8-6.8-25.8-6.8s10.7-4.4 19.9-6.8c9.2-2.4 24.3-3.4 25.3-3.9 1.5-.5 13.1 0 13.1 0h9.8s11.7-.5 13.1 0 16 1.9 25.3 3.9c9.2 2.4 19.9 6.8 19.9 6.8s-22.8 6.8-25.8 6.8c-2.4 0-23.8 1-37.4.5z" />
<g fill="#339">
<path d="M461.1 332.9c0 25.8 8.7 57.8 8.7 57.8l22.8-101.6-31.6-14.6c.1.1.1 32.7.1 58.4z" />
<path id="start" d="M827.6,264.4 C824.2,235.7,818.9,213.39999999999998,818.9,213.39999999999998,818.9,213.39999999999998,826.6834373182364,201.84727028862696,825.5453448375152,184.01374428884753,824.5274907503299,168.0643134338967,812.3825123532188,166.80814727074738,805.5251485346562,149.8103743248207,798.7119232459671,132.92201029007455,780.263058644971,134.7322617372159,780.263058644971,134.7322617372159,779.0037658568165,125.90217421844667,744.4191946648717,111.9569553204183,731.7620102357516,112.1007163301951,719.0589070474559,112.2449988878109,717.6028853336103,112.28988363580855,707.8179665186321,100.31755265134107,698.0701155027058,88.39057594803882,663.4760650673787,96.73843949513156,637.7028315974401,84.07372920440804,611.8992928237215,71.39412718917143,623.5068285142546,29.792617579137776,623.5068285142546,29.792617579137776,618.2554250361248,37.88181454287762,613.0574385534186,46.001851823304534,608.0303753689531,54.220571715981436,615.9645643692535,34.7640711752116,602.4251517825912,7.907341711477147,602.4251517825912,7.907341711477147,608.3007891003091,29.884985533437934,592.824233849544,50.20155585425947,592.824233849544,50.20155585425947,593.0821198194457,44.55044638840247,593.4105065330767,38.940040545915565,593.7966585484701,33.36298551595107,592.6130819111514,57.4796472257886,576.6913570481964,65.7248393972324,576.6913570481964,65.7248393972324,572.5193542079511,58.36402352906136,568.4128291693289,51.041011287283325,564.3729097897693,43.756453840694725,564.3729097897693,43.756453840694725,573.1646410657977,88.81770529446833,549.0908499998397,71.15963194883572,525.067974116981,54.030954497871384,539.1862380179568,13.352824031421534,539.1862380179568,13.352824031421534,531.439250048638,20.894755407010685,521.2298939709103,44.478028807610876,521.2298939709103,44.478028807610876,517.755285520438,12.304013490970991,544.487780542674,-0.41120009540923674,544.487780542674,-0.41120009540923674,544.487780542674,-0.41120009540923674,513.7782179719733,10.761294087341717,493.3459006394625,61.572910908063434,473.9926464179792,109.7010855900092,503.09225752805935,135.78835020476842,506.0458418546405,138.1615521032254,484.9233926902107,121.82179615285563,479.55377532773116,92.15895281907744,479.55377532773116,92.15895281907744,454.2141739194696,155.19574775092295,476.6191378073556,221.16463905671466,476.6191378073556,221.16463905671466,459.94090550039306,202.27306145171673,450.77955149796844,154.1757584865493,450.77955149796844,154.1757584865493,450.77955149796844,154.1757584865493,441.3949429150487,178.9048619951889,453.87081365714255,227.8604995262842,466.02518697144654,275.55457288543323,522.7328348169762,281.3581876749612,523.4000000000001,280.3,539.4000000000001,279.8,547.2,278.40000000000003,547.2,278.40000000000003,510.30000000000007,262.40000000000003,492.30000000000007,195.80000000000004,492.30000000000007,195.80000000000004,492.30000000000007,195.80000000000004,520.5000000000001,250.70000000000005,539.9000000000001,267.20000000000005,559.3000000000001,283.70000000000005,604.1000000000001,284.70000000000005,604.1000000000001,284.70000000000005,591.9000000000001,274.50000000000006,587.6000000000001,245.80000000000004,584.7000000000002,221.50000000000006,581.8000000000002,197.20000000000005,530.8000000000002,126.70000000000006,530.8000000000002,126.70000000000006,530.8000000000002,126.70000000000006,551.7000000000002,153.40000000000006,581.3000000000002,190.90000000000006,610.9000000000002,228.30000000000007,590.5000000000002,275.50000000000006,616.3000000000002,286.6000000000001,642.1000000000001,298.30000000000007,673.7000000000002,288.1000000000001,673.7000000000002,288.1000000000001,704.8000000000002,275.00000000000006,703.3000000000002,246.80000000000007,699.5000000000001,221.50000000000009,696.1000000000001,195.70000000000007,629.5000000000001,141.80000000000007,629.5000000000001,141.80000000000007,629.5000000000001,141.80000000000007,655.3000000000001,161.20000000000007,697.1000000000001,195.30000000000007,738.9000000000001,229.30000000000007,694.2000000000002,285.20000000000005,694.2000000000002,285.20000000000005,694.2000000000002,285.20000000000005,720.0000000000001,264.30000000000007,751.1000000000001,265.80000000000007,782.2000000000002,267.30000000000007,813.3000000000002,221.60000000000008,813.3000000000002,221.60000000000008,798.7000000000002,258.1000000000001,771.5000000000002,268.7000000000001,771.5000000000002,268.7000000000001,771.5000000000002,268.7000000000001,780.2000000000003,277.4000000000001,800.2000000000003,292.5000000000001,820.6000000000003,307.60000000000014,822.6000000000003,397.0000000000001,822.6000000000003,397.0000000000001,822.6000000000003,397.0000000000001,831.3000000000003,338.7000000000001,831.3000000000003,332.8000000000001,831.5000000000003,326.60000000000014,831.5000000000003,293.10000000000014,827.6000000000003,264.4000000000001" />
</g>

</g>
</svg>
